Coordinates
nRows=140
nColumns=2
inDegrees=yes
endheader
time	ankle_angle_r	
3.0625	 -5.409301	
3.125	 -5.404316	
3.1875	 -5.402614	
3.25	 -5.404492	
3.3125	 -5.419641	
3.375	 -5.423794	
3.4375	 -5.409526	
3.5	 -5.405369	
3.5625	 -5.406471	
3.625	 -5.407892	
3.6875	 -5.401952	
3.75	 -5.386267	
3.8125	 -5.396493	
3.875	 -5.414123	
3.9375	 -5.408948	
4	 -5.406845	
4.0625	 -5.399839	
4.125	 -5.379796	
4.1875	 -5.362099	
4.25	 -5.355800	
4.3125	 -5.376207	
4.375	 -5.381823	
4.4375	 -5.366295	
4.5	 -5.377517	
4.5625	 -5.367901	
4.625	 -5.334987	
4.6875	 -5.334216	
4.75	 -5.338742	
4.8125	 -5.350333	
4.875	 -5.374151	
4.9375	 -5.380540	
5	 -5.385627	
5.0625	 -5.385285	
5.125	 -5.374019	
5.1875	 -5.376946	
5.25	 -5.387267	
5.3125	 -5.399985	
5.375	 -5.412511	
5.4375	 -5.418730	
5.5	 -5.415215	
5.5625	 -5.371411	
5.625	 -5.324336	
5.6875	 -5.330719	
5.75	 -5.335232	
5.8125	 -5.316717	
5.875	 -5.318068	
5.9375	 -5.340624	
6	 -5.353109	
6.0625	 -5.322629	
6.125	 -5.295394	
6.1875	 -5.306688	
6.25	 -5.301953	
6.3125	 -5.304303	
6.375	 -5.347143	
6.4375	 -5.362820	
6.5	 -5.344548	
6.5625	 -5.338534	
6.625	 -5.338629	
6.6875	 -5.334268	
6.75	 -5.336054	
6.8125	 -5.360485	
6.875	 -5.374233	
6.9375	 -5.355618	
7	 -5.368501	
7.0625	 -5.383888	
7.125	 -5.352201	
7.1875	 -5.342947	
7.25	 -5.342652	
7.3125	 -5.330970	
7.375	 -5.365808	
7.4375	 -5.398047	
7.5	 -5.377361	
7.5625	 -5.344875	
7.625	 -5.341664	
7.6875	 -5.370497	
7.75	 -5.387640	
7.8125	 -5.395160	
7.875	 -5.413661	
7.9375	 -5.420069	
8	 -5.421485	
8.0625	 -5.408363	
8.125	 -5.378998	
8.1875	 -5.379191	
8.25	 -5.389014	
8.3125	 -5.394396	
8.375	 -5.413550	
8.4375	 -5.418192	
8.5	 -5.415713	
8.5625	 -5.407168	
8.625	 -5.379235	
8.6875	 -5.377879	
8.75	 -5.395820	
8.8125	 -5.406166	
8.875	 -5.421495	
8.9375	 -5.425663	
9	 -5.422545	
9.0625	 -5.414711	
9.125	 -5.389257	
9.1875	 -5.374650	
9.25	 -5.380341	
9.3125	 -5.390005	
9.375	 -5.387999	
9.4375	 -5.375829	
9.5	 -5.379022	
9.5625	 -5.366050	
9.625	 -5.334702	
9.6875	 -5.352822	
9.75	 -5.414768	
9.8125	 -5.497070	
9.875	 -5.554550	
9.9375	 -5.514027	
10	 -5.443051	
10.0625	 -5.413945	
10.125	 -5.388765	
10.1875	 -5.374053	
10.25	 -5.383996	
10.3125	 -5.387875	
10.375	 -5.361727	
10.4375	 -5.316013	
10.5	 -5.310073	
10.5625	 -5.325985	
10.625	 -5.288629	
10.6875	 -5.259521	
10.75	 -5.303854	
10.8125	 -5.347478	
10.875	 -5.344070	
10.9375	 -5.325820	
11	 -5.336112	
11.0625	 -5.380879	
11.125	 -5.389250	
11.1875	 -5.350937	
11.25	 -5.341192	
11.3125	 -5.361246	
11.375	 -5.373468	
11.4375	 -5.359664	
11.5	 -5.350268	
11.5625	 -5.394285	
11.625	 -5.404711	
11.6875	 -5.348866	
11.75	 -5.339105	
